# 
# Generated by Sweet Home 3D - mi? jun 29 23:28:51 COT 2022
# http://www.sweethome3d.com/
# 
mtllib casaTerror.mtl
g ground_1
usemtl ground_1
v 299.13638 0.0 95.51376
v 299.13638 0.0 99.01376
v 598.13635 0.0 99.01376
v 598.13635 0.0 306.01376
v 299.13638 0.0 306.0138
v 299.13638 0.0 400.0138
v 421.31818 0.0 400.0138
v 421.31818 0.0 306.0138
v 480.31818 0.0 306.0138
v 480.31818 0.0 400.0138
v 598.13635 0.0 400.0138
v 598.13635 0.0 503.0138
v 299.13638 0.0 503.01382
v 299.13638 0.0 506.51562
v 600.2973 0.0 506.51562
v 600.2973 0.0 95.51376
vn 0.0 1.0 0.0
vn 0.0 0.0 0.0
f 13//1 14//1 15//1
f 12//1 13//1 15//1
f 12//1 15//1 16//1
f 11//1 12//1 16//1
f 9//1 10//1 11//1
f 6//1 7//1 8//1
f 5//1 6//1 8//1
f 4//1 5//1 8//1
f 4//1 8//1 9//1
f 4//1 9//1 11//1
f 4//1 11//1 16//1
f 3//1 4//1 16//1
f 3//1 16//1 1//1
f 3//1 1//1 2//1
g wall_1_2
usemtl wall_1_2
v 303.86365 0.0 99.01376
v 307.36365 0.0 102.51376
v 595.86365 0.0 102.51376
v 595.86365 0.0 99.01376
vn 0.0 -1.0 0.0
f 20//3 19//3 18//3
f 20//3 18//3 17//3
g wall_1_3
usemtl wall_1_3
v 300.36365 0.0 95.51376
v 595.86365 0.0 95.51376
f 22//3 20//3 17//3
f 22//3 17//3 21//3
g wall_1_4
usemtl wall_1_2
v 307.36365 200.0 102.51376
v 303.86365 200.0 99.01376
v 595.86365 200.0 102.51376
v 595.86365 200.0 99.01376
vt 0.0 0.0 0
vt 0.0826218 0.0 0
vt 0.0826218 5.0125318 0
vt 0.0 5.0125318 0
vt -4.8156776 0.0 0
vt -4.8156776 5.0125318 0
vt 0.058422435 0.0 0
vt 0.058422435 5.0125318 0
vn -0.70710677 0.0 0.70710677
vn 0.0 0.0 1.0
vn 1.0 0.0 0.0
f 17/1/4 18/2/4 23/3/4 24/4/4
f 18/5/5 19/1/5 25/4/5 23/6/5
f 19/1/6 20/7/6 26/8/6 25/4/6
g wall_1_5
usemtl wall_1_3
v 300.36365 200.0 95.51376
v 595.86365 200.0 95.51376
vt 0.13673335 0.0 0
vt 0.13673335 13.422818 0
vt 0.0 13.422818 0
vt 0.09668508 0.0 0
vt 0.09668508 13.422818 0
vt 8.162983 0.0 0
vt 8.162983 13.422818 0
vn 0.0 0.0 -1.0
f 21/1/4 17/9/4 24/10/4 27/11/4
f 20/1/6 22/12/6 28/13/6 26/11/6
f 22/1/7 21/14/7 27/15/7 28/11/7
g wall_1_6
usemtl wall_1_2
f 24//1 23//1 25//1
f 24//1 25//1 26//1
g wall_1_7
usemtl wall_1_3
f 27//1 24//1 26//1
f 27//1 26//1 28//1
g wall_2_8
usemtl wall_1_2
v 303.86365 0.0 302.01376
v 307.36365 0.0 298.51376
f 18//3 30//3 29//3
f 18//3 29//3 17//3
g wall_2_9
usemtl wall_1_3
v 300.36365 0.0 305.51376
f 17//3 29//3 31//3
f 17//3 31//3 21//3
g wall_2_10
usemtl wall_1_2
v 307.36365 200.0 298.51376
v 303.86365 200.0 302.01376
vt -3.2716563 0.0 0
vt -3.2716563 5.0125318 0
vn 0.70710677 0.0 0.70710677
vn 0.70710677 0.0 -0.70710677
f 29/1/8 30/2/8 32/3/8 33/4/8
f 30/16/6 18/1/6 23/4/6 32/17/6
f 18/1/9 17/2/9 24/3/9 23/4/9
g wall_2_11
usemtl wall_1_3
v 300.36365 200.0 305.51376
vt 5.801105 0.0 0
vt 5.801105 13.422818 0
vn -1.0 0.0 0.0
f 21/1/10 31/18/10 34/19/10 27/11/10
f 31/1/8 29/9/8 33/10/8 34/11/8
f 17/1/9 21/9/9 27/10/9 24/11/9
g wall_2_12
usemtl wall_1_2
f 24//1 33//1 32//1
f 24//1 32//1 23//1
g wall_2_13
usemtl wall_1_3
f 27//1 34//1 33//1
f 27//1 33//1 24//1
g wall_3_14
usemtl wall_1_2
v 425.86365 0.0 302.01376
v 429.3281 0.0 298.51376
f 36//3 35//3 29//3
f 36//3 29//3 30//3
g wall_3_15
usemtl wall_1_3
v 422.3992 0.0 305.51376
f 35//3 37//3 31//3
f 35//3 31//3 29//3
g wall_3_16
usemtl wall_1_2
v 429.3281 200.0 298.51376
v 425.86365 200.0 302.01376
vt 0.08220323 0.0 0
vt 0.08220323 5.0125318 0
vt -2.0358458 0.0 0
vt -2.0358458 5.0125318 0
vn -0.70710677 0.0 -0.70710677
vn 0.71070725 0.0 0.7034879
f 30/1/11 29/2/11 33/3/11 32/4/11
f 35/1/12 36/20/12 38/21/12 39/4/12
f 36/22/7 30/1/7 32/4/7 38/23/7
g wall_3_17
usemtl wall_1_3
v 422.3992 200.0 305.51376
vt 3.3711479 0.0 0
vt 3.3711479 13.422818 0
vt 0.13604066 0.0 0
vt 0.13604066 13.422818 0
f 29/1/11 31/9/11 34/10/11 33/11/11
f 31/1/5 37/24/5 40/25/5 34/11/5
f 37/1/12 35/26/12 39/27/12 40/11/12
g wall_3_18
usemtl wall_1_2
f 32//1 33//1 39//1
f 32//1 39//1 38//1
g wall_3_19
usemtl wall_1_3
f 33//1 34//1 40//1
f 33//1 40//1 39//1
g wall_4_20
usemtl wall_1_2
v 426.8333 0.0 396.98438
v 430.3692 0.0 400.48438
f 42//3 41//3 35//3
f 42//3 35//3 36//3
g wall_4_21
usemtl wall_1_3
v 423.2974 0.0 393.48438
f 41//3 43//3 37//3
f 41//3 37//3 35//3
g wall_4_22
usemtl wall_1_2
v 430.3692 200.0 400.48438
v 426.8333 200.0 396.98438
vt 0.08304647 0.0 0
vt 0.08304647 5.0125318 0
vt -1.7021949 0.0 0
vt -1.7021949 5.0125318 0
vn -0.71070725 0.0 -0.7034879
vn -0.7034908 0.0 0.7107043
vn 0.9999479 0.0 -0.010209342
f 36/1/13 35/20/13 39/21/13 38/4/13
f 41/1/14 42/28/14 44/29/14 45/4/14
f 42/30/15 36/1/15 38/4/15 44/31/15
g wall_4_23
usemtl wall_1_3
v 423.2974 200.0 393.48438
vt 2.430254 0.0 0
vt 2.430254 13.422818 0
vt 0.13743678 0.0 0
vt 0.13743678 13.422818 0
vn -0.9999479 0.0 0.01020962
vn -0.70348775 0.0 0.71070737
f 35/1/13 37/26/13 40/27/13 39/11/13
f 37/1/16 43/32/16 46/33/16 40/11/16
f 43/1/17 41/34/17 45/35/17 46/11/17
g wall_4_24
usemtl wall_1_2
f 38//1 39//1 45//1
f 38//1 45//1 44//1
g wall_4_25
usemtl wall_1_3
f 39//1 40//1 46//1
f 39//1 46//1 45//1
g wall_5_26
usemtl wall_1_2
v 304.8333 0.0 396.98346
v 308.30145 0.0 400.4835
f 41//3 42//3 48//3
f 41//3 48//3 47//3
g wall_5_27
usemtl wall_1_3
v 301.36517 0.0 393.48343
f 43//3 41//3 47//3
f 43//3 47//3 49//3
g wall_5_28
usemtl wall_1_2
v 308.30145 200.0 400.4835
v 304.8333 200.0 396.98346
vt 0.08224697 0.0 0
vt 0.08224697 5.0125318 0
vt 2.03757 0.0 0
vt 2.03757 5.0125318 0
vn -0.71033555 0.0 0.70386326
vn -0.0000073 0.0 1.0
vn 0.7034908 0.0 -0.7107043
f 47/1/18 48/36/18 50/37/18 51/4/18
f 48/1/19 42/38/19 44/39/19 50/4/19
f 42/1/20 41/28/20 45/29/20 44/4/20
g wall_5_29
usemtl wall_1_3
v 301.36517 200.0 393.48343
vt 0.13611303 0.0 0
vt 0.13611303 13.422818 0
vt 3.3682933 0.0 0
vt 3.3682933 13.422818 0
vn 0.70348775 0.0 -0.71070737
vn 0.0000078 0.0 -1.0
f 49/1/18 47/40/18 51/41/18 52/11/18
f 41/1/21 43/34/21 46/35/21 45/11/21
f 43/1/22 49/42/22 52/43/22 46/11/22
g wall_5_30
usemtl wall_1_2
f 51//1 50//1 44//1
f 51//1 44//1 45//1
g wall_5_31
usemtl wall_1_3
f 52//1 51//1 45//1
f 52//1 45//1 46//1
g wall_6_32
usemtl wall_1_2
v 303.86365 0.0 503.01562
v 307.39578 0.0 499.51562
f 48//3 54//3 53//3
f 48//3 53//3 47//3
g wall_6_33
usemtl wall_1_3
v 300.3315 0.0 506.51562
f 47//3 53//3 55//3
f 47//3 55//3 49//3
g wall_6_34
usemtl wall_1_2
v 307.39578 200.0 499.51562
v 303.86365 200.0 503.01562
vt 0.08300196 0.0 0
vt 0.08300196 5.0125318 0
vt -1.6531259 0.0 0
vt -1.6531259 5.0125318 0
vn 0.70386815 0.0 0.71033067
vn 0.99995816 0.0 0.009144831
vn 0.71033555 0.0 -0.70386326
f 53/1/23 54/44/23 56/45/23 57/4/23
f 54/46/24 48/1/24 50/4/24 56/47/24
f 48/1/25 47/36/25 51/37/25 50/4/25
g wall_6_35
usemtl wall_1_3
v 300.3315 200.0 506.51562
vt 3.1225667 0.0 0
vt 3.1225667 13.422818 0
vt 0.1373625 0.0 0
vt 0.1373625 13.422818 0
vn -0.99995816 0.0 -0.009144453
f 49/1/26 55/48/26 58/49/26 52/11/26
f 55/1/23 53/50/23 57/51/23 58/11/23
f 47/1/25 49/40/25 52/41/25 51/11/25
g wall_6_36
usemtl wall_1_2
f 51//1 57//1 56//1
f 51//1 56//1 50//1
g wall_6_37
usemtl wall_1_3
f 52//1 58//1 57//1
f 52//1 57//1 51//1
g wall_7_38
usemtl wall_1_2
v 592.36365 0.0 499.5138
v 595.86365 0.0 503.01376
f 60//3 53//3 54//3
f 60//3 54//3 59//3
g wall_7_39
usemtl wall_1_3
v 599.36365 0.0 506.51373
f 61//3 55//3 53//3
f 61//3 53//3 60//3
g wall_7_40
usemtl wall_1_2
v 592.36365 200.0 499.5138
v 595.86365 200.0 503.01376
vt 4.756719 0.0 0
vt 4.756719 5.0125318 0
vt 0.08262144 0.0 0
vt 0.08262144 5.0125318 0
vn -0.0000064 0.0 -1.0
vn -0.70386815 0.0 -0.71033067
vn 0.70710367 0.0 -0.70710987
f 59/1/27 54/52/27 56/53/27 62/4/27
f 54/1/28 53/44/28 57/45/28 56/4/28
f 60/1/29 59/54/29 62/55/29 63/4/29
g wall_7_41
usemtl wall_1_3
v 599.36365 200.0 506.51373
vt 8.260556 0.0 0
vt 8.260556 13.422818 0
vt 0.13673276 0.0 0
vt 0.13673276 13.422818 0
vn 0.0000063 0.0 1.0
f 53/1/28 55/50/28 58/51/28 57/11/28
f 55/1/30 61/56/30 64/57/30 58/11/30
f 61/1/29 60/58/29 63/59/29 64/11/29
g wall_7_42
usemtl wall_1_2
f 62//1 56//1 57//1
f 62//1 57//1 63//1
g wall_7_43
usemtl wall_1_3
f 63//1 57//1 58//1
f 63//1 58//1 64//1
g wall_8_44
usemtl wall_1_2
v 595.86365 0.0 400.01376
v 592.36365 0.0 403.51376
f 60//3 59//3 66//3
f 60//3 66//3 65//3
g wall_8_45
usemtl wall_1_3
v 599.36365 0.0 396.51376
f 61//3 60//3 65//3
f 61//3 65//3 67//3
g wall_8_46
usemtl wall_1_2
v 592.36365 200.0 403.51376
v 595.86365 200.0 400.01376
vt -1.6024444 0.0 0
vt -1.6024444 5.0125318 0
vn -0.70710367 0.0 0.70710987
f 65/1/11 66/2/11 68/3/11 69/4/11
f 66/60/10 59/1/10 62/4/10 68/61/10
f 59/1/31 60/54/31 63/55/31 62/4/31
g wall_8_47
usemtl wall_1_3
v 599.36365 200.0 396.51376
vt 3.0386732 0.0 0
vt 3.0386732 13.422818 0
f 67/1/11 65/9/11 69/10/11 70/11/11
f 60/1/31 61/58/31 64/59/31 63/11/31
f 61/1/6 67/62/6 70/63/6 64/11/6
g wall_8_48
usemtl wall_1_2
f 69//1 68//1 62//1
f 69//1 62//1 63//1
g wall_8_49
usemtl wall_1_3
f 70//1 69//1 63//1
f 70//1 63//1 64//1
g wall_9_50
usemtl wall_1_2
v 483.89392 0.0 400.01376
v 480.39392 0.0 403.51376
f 65//3 66//3 72//3
f 65//3 72//3 71//3
g wall_9_51
usemtl wall_1_3
v 487.39392 0.0 396.51376
f 67//3 65//3 71//3
f 67//3 71//3 73//3
g wall_9_52
usemtl wall_1_2
v 480.39392 200.0 403.51376
v 483.89392 200.0 400.01376
vt -1.8690126 0.0 0
vt -1.8690126 5.0125318 0
f 71/1/11 72/2/11 74/3/11 75/4/11
f 72/64/5 66/1/5 68/4/5 74/65/5
f 66/1/8 65/2/8 69/3/8 68/4/8
g wall_9_53
usemtl wall_1_3
v 487.39392 200.0 396.51376
vt 3.0930862 0.0 0
vt 3.0930862 13.422818 0
f 73/1/11 71/9/11 75/10/11 76/11/11
f 65/1/8 67/9/8 70/10/8 69/11/8
f 67/1/7 73/66/7 76/67/7 70/11/7
g wall_9_54
usemtl wall_1_2
f 75//1 74//1 68//1
f 75//1 68//1 69//1
g wall_9_55
usemtl wall_1_3
f 76//1 75//1 69//1
f 76//1 69//1 70//1
g wall_10_56
usemtl wall_1_2
v 480.39392 0.0 298.51376
v 483.89392 0.0 302.01376
f 78//3 71//3 72//3
f 78//3 72//3 77//3
g wall_10_57
usemtl wall_1_3
v 487.39392 0.0 305.51376
f 79//3 73//3 71//3
f 79//3 71//3 78//3
g wall_10_58
usemtl wall_1_2
v 480.39392 200.0 298.51376
v 483.89392 200.0 302.01376
vt -1.752673 0.0 0
vt -1.752673 5.0125318 0
f 77/68/10 72/1/10 74/4/10 80/69/10
f 72/1/8 71/2/8 75/3/8 74/4/8
f 78/1/9 77/2/9 80/3/9 81/4/9
g wall_10_59
usemtl wall_1_3
v 487.39392 200.0 305.51376
vt 2.513812 0.0 0
vt 2.513812 13.422818 0
f 71/1/8 73/9/8 76/10/8 75/11/8
f 73/1/6 79/70/6 82/71/6 76/11/6
f 79/1/9 78/9/9 81/10/9 82/11/9
g wall_10_60
usemtl wall_1_2
f 80//1 74//1 75//1
f 80//1 75//1 81//1
g wall_10_61
usemtl wall_1_3
f 81//1 75//1 76//1
f 81//1 76//1 82//1
g wall_11_62
usemtl wall_1_2
v 595.86365 0.0 302.01376
v 592.36365 0.0 298.51376
f 84//3 83//3 78//3
f 84//3 78//3 77//3
g wall_11_63
usemtl wall_1_3
v 599.36365 0.0 305.51376
f 83//3 85//3 79//3
f 83//3 79//3 78//3
g wall_11_64
usemtl wall_1_2
v 592.36365 200.0 298.51376
v 595.86365 200.0 302.01376
f 77/1/4 78/2/4 81/3/4 80/4/4
f 83/1/9 84/2/9 86/3/9 87/4/9
f 84/64/7 77/1/7 80/4/7 86/65/7
g wall_11_65
usemtl wall_1_3
v 599.36365 200.0 305.51376
f 78/1/4 79/9/4 82/10/4 81/11/4
f 79/1/5 85/66/5 88/67/5 82/11/5
f 85/1/9 83/9/9 87/10/9 88/11/9
g wall_11_66
usemtl wall_1_2
f 80//1 81//1 87//1
f 80//1 87//1 86//1
g wall_11_67
usemtl wall_1_3
f 81//1 82//1 88//1
f 81//1 88//1 87//1
g wall_12_68
usemtl wall_1_2
v 592.36365 0.0 99.01376
v 592.36365 0.0 167.3774
v 595.86365 0.0 167.3774
f 20//3 91//3 90//3
f 20//3 90//3 89//3
v 592.36365 0.0 237.3774
v 595.86365 0.0 237.3774
f 93//3 83//3 84//3
f 93//3 84//3 92//3
g wall_12_69
usemtl wall_1_3
v 599.36365 0.0 167.3774
v 599.36365 0.0 99.01376
f 95//3 94//3 91//3
f 95//3 91//3 20//3
v 599.36365 0.0 237.3774
f 96//3 85//3 83//3
f 96//3 83//3 93//3
g wall_12_70
usemtl wall_1_2
v 592.36365 200.0 167.3774
v 592.36365 200.0 99.01376
v 595.86365 200.0 167.3774
vt -3.3300788 0.0 0
vt -2.1889446 0.0 0
vt -2.1889446 5.0125318 0
vt -3.3300788 5.0125318 0
f 89/72/10 90/73/10 97/74/10 98/75/10
f 90/1/5 91/7/5 99/8/5 97/4/5
f 20/1/7 89/7/7 98/8/7 26/4/7
v 592.36365 200.0 237.3774
v 595.86365 200.0 237.3774
vt -1.0204959 0.0 0
vt -1.0204959 5.0125318 0
f 92/76/10 84/1/10 86/4/10 100/77/10
f 84/1/4 83/2/4 87/3/4 86/4/4
f 93/1/7 92/7/7 100/8/7 101/4/7
v 592.36365 195.0 167.3774
v 592.36365 195.0 237.3774
v 595.86365 195.0 237.3774
v 595.86365 195.0 167.3774
vt -2.1889446 4.8872185 0
vt -1.0204959 4.8872185 0
vt 0.0 4.8872185 0
vt 0.058422435 4.8872185 0
f 102/78/10 103/79/10 100/77/10 97/74/10
f 103/80/5 104/81/5 101/8/5 100/4/5
f 105/80/7 102/81/7 97/8/7 99/4/7
f 105//3 104//3 103//3
f 105//3 103//3 102//3
g wall_12_71
usemtl wall_1_3
v 599.36365 200.0 167.3774
v 599.36365 200.0 99.01376
vt 3.8159218 0.0 0
vt 5.7044196 0.0 0
vt 5.7044196 13.422818 0
vt 3.8159218 13.422818 0
f 91/1/5 94/12/5 106/13/5 99/11/5
f 94/82/6 95/83/6 107/84/6 106/85/6
f 95/1/7 20/12/7 26/13/7 107/11/7
v 599.36365 200.0 237.3774
vt 1.88222 0.0 0
vt 1.88222 13.422818 0
f 83/1/4 85/9/4 88/10/4 87/11/4
f 85/1/6 96/86/6 108/87/6 88/11/6
f 96/1/7 93/12/7 101/13/7 108/11/7
v 599.36365 195.0 237.3774
v 599.36365 195.0 167.3774
vt 0.0 13.087248 0
vt 0.09668508 13.087248 0
vt 1.88222 13.087248 0
vt 3.8159218 13.087248 0
f 104/88/5 109/89/5 108/13/5 101/11/5
f 109/90/6 110/91/6 106/85/6 108/87/6
f 110/88/7 105/89/7 99/13/7 106/11/7
f 110//3 109//3 104//3
f 110//3 104//3 105//3
g wall_12_72
usemtl wall_1_2
f 98//1 97//1 99//1
f 98//1 99//1 26//1
f 100//1 86//1 87//1
f 100//1 87//1 101//1
f 97//1 100//1 101//1
f 97//1 101//1 99//1
g wall_12_73
usemtl wall_1_3
f 26//1 99//1 106//1
f 26//1 106//1 107//1
f 101//1 87//1 88//1
f 101//1 88//1 108//1
f 99//1 101//1 108//1
f 99//1 108//1 106//1
g room_13_74
usemtl room_13_74
vt 11.120312 -3.680809 0
vt 11.120312 -11.3759775 0
vt 22.235552 -11.375976 0
vt 22.235552 -3.680809 0
f 2/92/1 5/93/1 4/94/1
f 2/92/1 4/94/1 3/95/1
g room_13_75
usemtl room_13_75
v 598.13635 200.0 99.01376
v 598.13635 200.0 306.01376
v 299.13638 200.0 306.0138
v 299.13638 200.0 99.01376
vt 17.854816 2.9556346 0
vt 17.854816 9.134739 0
vt 8.929444 9.13474 0
vt 8.929444 2.9556346 0
f 111/96/3 112/97/3 113/98/3
f 111/96/3 113/98/3 114/99/3
g room_14_76
usemtl room_13_74
vt 15.662385 -11.3759775 0
vt 15.662385 -14.870401 0
vt 17.855694 -14.870401 0
vt 17.855694 -11.3759775 0
f 8/100/1 7/101/1 10/102/1
f 8/100/1 10/102/1 9/103/1
g room_14_77
usemtl room_13_75
v 480.31818 200.0 306.0138
v 480.31818 200.0 400.0138
v 421.31818 200.0 400.0138
v 421.31818 200.0 306.0138
vt 14.337855 9.13474 0
vt 14.337855 11.94071 0
vt 12.576662 11.94071 0
vt 12.576662 9.13474 0
f 115/104/3 116/105/3 117/106/3
f 115/104/3 117/106/3 118/107/3
g room_15_78
usemtl room_13_74
vt 11.120312 -18.699398 0
vt 22.235552 -18.699398 0
vt 22.235552 -14.870401 0
vt 11.120312 -14.870401 0
f 13/108/1 12/109/1 11/110/1
f 13/108/1 11/110/1 6/111/1
g room_15_79
usemtl room_13_75
v 299.13638 200.0 400.0138
v 598.13635 200.0 400.0138
v 598.13635 200.0 503.0138
v 299.13638 200.0 503.01382
vt 8.929444 11.94071 0
vt 17.854816 11.94071 0
vt 17.854816 15.015337 0
vt 8.929444 15.015338 0
f 119/112/3 120/113/3 121/114/3
f 119/112/3 121/114/3 122/115/3
g Montant_80
usemtl white
v 600.2973 195.0 167.3774
v 600.2973 0.0 167.3774
v 591.4299 0.0 167.3774
v 591.4299 195.0 167.3774
v 591.4299 0.0 171.58505
v 596.6103 0.0 171.58505
v 596.6103 189.85611 171.58505
v 591.4299 189.85611 171.58505
v 591.4299 195.0 237.3774
v 600.2973 195.0 237.3774
v 596.6103 190.88489 234.01128
v 600.2973 190.88489 234.01128
v 600.2973 0.0 234.01128
v 596.6103 0.0 234.01128
v 591.4299 0.0 237.3774
v 600.2973 0.0 237.3774
v 596.6103 190.88489 170.74352
v 600.2973 190.88489 170.74352
v 596.6103 189.85611 233.16974
v 596.6103 0.0 233.16974
v 591.4299 0.0 233.16974
v 591.4299 189.85611 233.16974
v 600.2973 0.0 170.74352
v 596.6103 0.0 170.74352
vn 0 0.0 -1.0
vn -0 0.0 1.0
vn 1.0 0.0 0
vn -1.0 0.0 -0
f 123//32 124//32 125//32
f 123//32 125//32 126//32
f 127//33 128//33 129//33
f 127//33 129//33 130//33
f 131//1 132//1 123//1
f 131//1 123//1 126//1
f 133//32 134//32 135//32
f 133//32 135//32 136//32
f 132//33 131//33 137//33
f 132//33 137//33 138//33
f 134//3 133//3 139//3
f 134//3 139//3 140//3
f 141//32 142//32 143//32
f 141//32 143//32 144//32
f 145//34 124//34 123//34
f 140//34 145//34 123//34
f 140//34 123//34 132//34
f 134//34 140//34 132//34
f 134//34 132//34 138//34
f 134//34 138//34 135//34
f 145//33 140//33 139//33
f 145//33 139//33 146//33
f 144//35 143//35 137//35
f 144//35 137//35 131//35
f 144//35 131//35 126//35
f 130//35 144//35 126//35
f 130//35 126//35 125//35
f 130//35 125//35 127//35
f 144//3 130//3 129//3
f 144//3 129//3 141//3
f 136//3 135//3 138//3
f 136//3 138//3 137//3
f 125//3 124//3 145//3
f 125//3 145//3 146//3
f 137//3 143//3 142//3
f 137//3 142//3 136//3
f 127//3 125//3 146//3
f 127//3 146//3 128//3
f 133//34 141//34 129//34
f 133//34 129//34 139//34
f 128//34 146//34 139//34
f 128//34 139//34 129//34
f 133//34 136//34 142//34
f 133//34 142//34 141//34
g sweethome3d_window_mirror_81
usemtl Mirror
v 308.11365 152.52744 183.41782
v 308.11365 183.47256 183.41782
v 308.11365 183.47256 215.88245
v 308.11365 152.52744 215.88245
vt 0.97806543 0.113640815 0
vt 0.97806543 0.99778783 0
vt 0.050505072 0.99778783 0
vt 0.050505072 0.113640815 0
f 147/116/34 148/117/34 149/118/34
f 147/116/34 149/118/34 150/119/34
g sweethome3d_window_mirror_1_82
usemtl Back
v 307.76364 152.52722 183.41766
v 307.76364 183.47278 183.41766
v 307.76364 183.47278 215.8826
v 307.76364 152.52722 215.8826
vt 0.9780694 0.12363486 0
vt 0.9780694 1.0077938 0
vt 0.050500985 1.0077938 0
vt 0.050500985 0.12363486 0
vn 0.0007908 0.0 -0.99999964
vn 0.0007908 0.0 -0.99999964
vn 0.0005572 0.9999998 0
vn 0.0005572 0.9999998 0
vn 0.0007908 0.0 0.99999964
vn 0.0005572 -0.9999998 0
vn 0.0005572 -0.9999998 0
f 147/116/36 151/120/36 152/121/36
f 147/116/37 152/121/37 148/117/37
f 148/117/38 152/121/38 153/122/38
f 148/117/39 153/122/39 149/118/39
f 150/119/40 149/118/40 153/122/40
f 150/119/40 153/122/40 154/123/40
f 150/119/41 154/123/41 151/120/41
f 150/119/42 151/120/42 147/116/42
g Picture_83
usemtl Picture
v 308.36365 152.52744 183.41782
v 308.36365 183.47256 183.41782
v 308.36365 183.47256 215.88245
v 308.36365 152.52744 215.88245
vt 0.97806543 0.10649796 0
vt 0.97806543 0.99064493 0
vt 0.050505072 0.99064493 0
vt 0.050505072 0.10649796 0
f 155/124/34 156/125/34 157/126/34
f 155/124/34 157/126/34 158/127/34
g Picture_1_84
usemtl Back
vn 0.000325 1.0 0
vn 0.000325 1.0 0
vn 0.0004613 0.0 -0.9999999
vn 0.0004613 0.0 0.9999999
vn 0.0004613 0.0 0.9999999
vn 0.000325 -1.0 0
vn 0.000325 -1.0 0
f 156/125/43 152/121/43 153/122/43
f 156/125/44 153/122/44 157/126/44
f 155/124/45 151/120/45 152/121/45
f 155/124/45 152/121/45 156/125/45
f 158/127/46 157/126/46 153/122/46
f 158/127/47 153/122/47 154/123/47
f 158/127/48 154/123/48 151/120/48
f 158/127/49 151/120/49 155/124/49
g Back_85
usemtl Back
f 154/123/35 153/122/35 152/121/35
f 154/123/35 152/121/35 151/120/35
g Frame_86
usemtl Frame
v 309.56366 150.0 217.65013
v 309.56366 186.0 217.65013
v 307.36365 186.0 217.65013
v 307.36365 150.0 217.65013
v 307.36365 186.0 181.65013
v 307.36365 183.47278 183.41766
v 307.36365 183.47278 215.8826
v 307.36365 150.0 181.65013
v 309.56366 186.0 181.65013
v 309.56366 150.0 181.65013
v 307.36365 152.52722 215.8826
v 307.36365 152.52722 183.41766
vt 0.0 1.0285715 0
vt 0.0 1.0914286 0
vt 0.0 0.062857166 0
vt 1.0285704 1.0914286 0
vt 0.9780694 1.0192224 0
vt 0.050500985 1.0192224 0
vt 1.0285704 0.062857166 0
vt 1.0285704 1.0285715 0
vt 1.0285704 0.0 0
vt 0.050500985 0.13506344 0
vt 0.9780694 0.13506344 0
vn -1.0 0.0 -0
f 159/1/33 160/128/33 161/129/33
f 159/1/33 161/129/33 162/130/33
f 161/129/35 163/131/35 164/132/35
f 161/129/50 164/132/50 165/133/50
f 166/134/32 163/131/32 167/135/32
f 166/134/32 167/135/32 168/136/32
f 162/130/3 166/134/3 168/136/3
f 162/130/3 168/136/3 159/1/3
f 163/131/1 161/129/1 160/128/1
f 163/131/1 160/128/1 167/135/1
f 162/130/35 161/129/35 165/133/35
f 162/130/35 165/133/35 169/137/35
f 163/131/35 166/134/35 170/138/35
f 163/131/35 170/138/35 164/132/35
f 166/134/35 162/130/35 169/137/35
f 166/134/50 169/137/50 170/138/50
g Frame_8_87
usemtl Frame
v 309.45404 185.07535 217.00343
v 309.45404 185.07535 182.29683
v 309.45404 150.92465 182.29683
v 309.45404 150.92465 217.00343
v 309.14536 184.15564 216.36026
v 309.14536 184.15575 182.94008
v 308.76855 183.71054 216.04889
v 308.76855 183.71054 183.25137
v 309.14536 151.84425 182.94
v 308.76855 152.28946 183.25137
v 309.14536 151.84425 216.36026
v 308.76855 152.28946 216.04889
vt 0.018477177 1.0052841 0
vt 1.0100932 1.0052841 0
vt 1.0100932 0.029550117 0
vt 0.018477177 0.029550117 0
vt 0.036853317 0.987827 0
vt 0.991715 0.9878299 0
vt 0.045749784 0.9858756 0
vt 0.9828207 0.9858756 0
vt 0.9917171 0.064644404 0
vt 0.9828207 0.08813013 0
vt 0.036853317 0.064644404 0
vt 0.045749784 0.08813013 0
vn 0.99605644 -0.08374875 0.029286897
vn 0.9973975 -0.04193075 -0.05865262
vn 0.9903907 -0.100162804 -0.09536081
vn 0.9882337 -0.13604397 0.06990095
vn 0.9973975 0.04193075 0.058652647
vn 0.99039054 0.100168355 0.09535689
vn 0.99605644 0.08374875 -0.029286873
vn 0.9882327 0.13604999 -0.06990524
vn 0.94323593 -0.29406604 -0.15437318
vn 0.93448263 -0.31079435 0.17363465
vn 0.796845 -0.47940767 -0.36770418
vn 0.787532 -0.519598 0.3313778
vn 0.4286595 -0.8153101 -0.38925624
vn 0.38508183 -0.76761425 0.5123283
vn 0.94294417 0.25049737 0.21933389
vn 0.796858 0.47938716 0.36770266
vn 0.3903669 0.74257755 0.5442355
vn 0.9344919 0.31077212 -0.17362487
vn 0.7417383 0.6125954 -0.2730405
vn 0.34763226 0.69305617 -0.63152593
vn -0.0003184 0.81946325 -0.5731316
vn -0.0003184 -0.81946325 -0.5731316
vn -0.0003386 -0.5815688 0.81349707
vn -0.0002755 0.9439468 0.3300976
f 167/135/51 160/128/52 171/139/53
f 167/135/51 171/139/53 172/140/54
f 168/136/55 167/135/51 172/140/54
f 168/136/55 172/140/54 173/141/56
f 160/128/52 159/1/57 174/142/58
f 160/128/52 174/142/58 171/139/53
f 159/1/57 168/136/55 173/141/56
f 159/1/57 173/141/56 174/142/58
f 172/140/54 171/139/53 175/143/59
f 172/140/54 175/143/59 176/144/60
f 176/144/60 175/143/59 177/145/61
f 176/144/60 177/145/61 178/146/62
f 178/146/62 177/145/61 157/126/63
f 178/146/62 157/126/63 156/125/64
f 173/141/56 172/140/54 176/144/60
f 173/141/56 176/144/60 179/147/65
f 179/147/65 176/144/60 178/146/62
f 179/147/65 178/146/62 180/148/66
f 180/148/66 178/146/62 156/125/64
f 180/148/66 156/125/64 155/124/67
f 171/139/53 174/142/58 181/149/68
f 171/139/53 181/149/68 175/143/59
f 175/143/59 181/149/68 182/150/69
f 175/143/59 182/150/69 177/145/61
f 177/145/61 182/150/69 158/127/70
f 177/145/61 158/127/70 157/126/63
f 174/142/58 173/141/56 179/147/65
f 174/142/58 179/147/65 181/149/68
f 181/149/68 179/147/65 180/148/66
f 181/149/68 180/148/66 182/150/69
f 182/150/69 180/148/66 155/124/67
f 182/150/69 155/124/67 158/127/70
f 158/127/70 169/137/71 165/133/72
f 158/127/70 165/133/72 157/126/63
f 156/125/64 157/126/63 165/133/72
f 156/125/64 165/133/72 164/132/73
f 155/124/67 156/125/64 164/132/73
f 155/124/67 164/132/73 170/138/74
f 158/127/70 155/124/67 170/138/74
f 158/127/70 170/138/74 169/137/71
